<?xml version="1.0" encoding="UTF-8"?>
<svg xmlns="http://www.w3.org/2000/svg" xmlns:xlink="http://www.w3.org/1999/xlink" viewBox="0 0 860.75 625.16">
  <defs>
    <style>
      .cls-1 {
        fill: #a254c7;
      }

      .cls-2, .cls-3, .cls-4, .cls-5 {
        stroke-linecap: round;
        stroke-linejoin: round;
      }

      .cls-2, .cls-3, .cls-4, .cls-5, .cls-6 {
        fill: none;
      }

      .cls-2, .cls-4 {
        stroke: #16305c;
      }

      .cls-2, .cls-7, .cls-8 {
        mix-blend-mode: multiply;
      }

      .cls-3 {
        stroke: #742202;
        stroke-width: .5px;
      }

      .cls-9, .cls-7 {
        fill: #16305c;
      }

      .cls-10 {
        fill: #efd06f;
      }

      .cls-11 {
        opacity: .6;
      }

      .cls-11, .cls-12, .cls-13, .cls-14 {
        fill: #4d8bf6;
      }

      .cls-5 {
        stroke: #4d8bf6;
      }

      .cls-15 {
        fill: #fd322f;
      }

      .cls-16 {
        fill: #f6f0ff;
      }

      .cls-17 {
        clip-path: url(#clippath-1);
      }

      .cls-18 {
        isolation: isolate;
      }

      .cls-19 {
        fill: #2642f3;
      }

      .cls-12 {
        opacity: .4;
      }

      .cls-20 {
        fill: #742202;
      }

      .cls-21 {
        opacity: .35;
      }

      .cls-13 {
        opacity: .25;
      }

      .cls-22 {
        fill: #202b7a;
      }

      .cls-23 {
        fill: #802461;
      }

      .cls-24 {
        clip-path: url(#clippath);
      }
    </style>
    <clipPath id="clippath">
      <path class="cls-6" d="M403.84,284.46h101.67c14.5,18.53,12.76,55.94,8.88,68.5-4.2,13.61,7.07,94.08,7.07,94.08l18.96,100.48c-4.63,4.87-31.81,11.58-49.88,8.61-10.93-48.95-21.29-89.57-23.28-103.71-2.08-14.76-6.17-42.28-14.48-84.66-.59,48.69-3.88,62.97-3.88,73.09l-7.66,117.69c-17.73,2.05-38.1,2.27-52.45-2.61,0-57.56,1.14-103.17,2.17-129.36.9-22.64,12.87-142.11,12.87-142.11Z"/>
    </clipPath>
    <clipPath id="clippath-1">
      <path class="cls-6" d="M422.57,101.08v-9.82c0-1.82,1.47-3.29,3.29-3.29h30.31c1.82,0,3.29,1.47,3.29,3.29v9.82c0,1.82-1.47,3.29-3.29,3.29h-30.31c-1.82,0-3.29-1.47-3.29-3.29Z"/>
    </clipPath>
  </defs>
  <g class="cls-18">
    <g id="Layer_2" data-name="Layer 2">
      <g id="OBJECTS">
        <path class="cls-22" d="M5.48,609.82h849.79c3.02,0,5.48,2.46,5.48,5.48v9.86H0v-9.86c0-3.02,2.46-5.48,5.48-5.48Z"/>
        <g>
          <g>
            <path class="cls-14" d="M346.6,12.14v12.91c36.15-2.93,76.17-4.55,118.27-4.55s82.12,1.62,118.27,4.55v-12.91c0-4.28-3.29-7.85-7.56-8.17C541.44,1.41,504.05,0,464.87,0s-76.57,1.4-110.71,3.96c-4.27.32-7.56,3.89-7.56,8.17Z"/>
            <g>
              <path class="cls-19" d="M549.18,62.74v66.56c4.12.23,8.22.47,12.3.74V63.47c-4.08-.27-8.18-.51-12.3-.74Z"/>
              <path class="cls-19" d="M535.9,37.14v91.49c-4.08-.17-8.18-.37-12.3-.52V36.63c4.12.15,8.22.32,12.3.51Z"/>
              <path class="cls-19" d="M510.33,48.66v79.07c-4.08-.14-8.18-.25-12.3-.31V48.36c4.12.08,8.22.18,12.3.3Z"/>
              <path class="cls-19" d="M472.45,60.5v66.6c4.12,0,8.22.02,12.3.08V60.61c-4.08-.06-8.18-.1-12.3-.1Z"/>
              <path class="cls-19" d="M459.17,72.96v54.13c-4.12,0-8.22.04-12.3.08v-54.12c4.08-.04,8.18-.07,12.3-.09Z"/>
            </g>
            <g class="cls-8">
              <path class="cls-19" d="M549.18,99.71v29.59c4.12.15,8.22.56,12.3.74v-29.85c-4.08-.17-8.18-.33-12.3-.48Z"/>
              <path class="cls-19" d="M535.9,69.32v59.3c-4.08-.11-8.18-.42-12.3-.52v-59.11c4.12.1,8.22.21,12.3.33Z"/>
              <path class="cls-19" d="M510.33,81.2v46.52c-4.08-.09-8.18-.27-12.3-.31v-46.41c4.12.06,8.22.12,12.3.2Z"/>
              <path class="cls-19" d="M472.45,84.59v42.52c4.12,0,8.22.04,12.3.08v-42.53c-4.08-.04-8.18-.07-12.3-.07Z"/>
              <path class="cls-19" d="M459.17,92.73v34.35c-4.12,0-8.22.06-12.3.08v-34.38c4.08-.03,8.18-.05,12.3-.06Z"/>
            </g>
            <path class="cls-12" d="M346.6,12.13v120.87c0,4.76,4.03,8.52,8.78,8.17,33.81-2.5,70.78-3.87,109.49-3.87s75.68,1.37,109.49,3.87c4.74.35,8.78-3.42,8.78-8.17V12.13c0-4.28-3.29-7.85-7.56-8.17-34.14-2.56-71.53-3.96-110.71-3.96s-76.57,1.4-110.71,3.96c-4.27.32-7.56,3.89-7.56,8.17Z"/>
            <g>
              <path class="cls-16" d="M356.85,39.33v6.64c23.67-1.74,48.32-2.89,73.67-3.4v-6.64c-25.35.51-50,1.66-73.67,3.4Z"/>
              <path class="cls-16" d="M415.97,49.6c-20.24.61-40.01,1.61-59.12,3.01v6.64c19.11-1.41,38.88-2.4,59.12-3.01v-6.64Z"/>
              <path class="cls-16" d="M397.16,63.57c-13.7.59-27.17,1.36-40.31,2.32v6.64c13.14-.97,26.61-1.73,40.31-2.32v-6.64Z"/>
              <path class="cls-16" d="M406.38,88.94c-16.89.62-33.46,1.51-49.53,2.69v6.64c16.08-1.18,32.64-2.07,49.53-2.69v-6.64Z"/>
              <path class="cls-16" d="M422.87,75.98c-22.65.58-44.75,1.63-66.02,3.2v6.64c21.2-1.56,43.22-2.61,65.79-3.19l.22-6.65Z"/>
            </g>
          </g>
          <g>
            <path class="cls-5" d="M244.57,400.74c0-19.81,98.63-35.86,220.31-35.86s220.31,16.06,220.31,35.86"/>
            <path class="cls-5" d="M274.28,510.6c0-14.15,85.33-25.62,190.59-25.62s190.59,11.47,190.59,25.62"/>
            <path class="cls-5" d="M208.7,284.13c0-25.47,114.69-46.11,256.17-46.11s256.17,20.64,256.17,46.11"/>
            <g>
              <g>
                <g>
                  <polygon class="cls-10" points="395.57 553.35 394.86 583.38 427.33 589.07 429.44 554.59 395.57 553.35"/>
                  <g>
                    <path class="cls-19" d="M333.18,606.77h95.5s2.04-19.22.51-24.45c-.23-.81-.56-1.28-.99-1.29-3.43-.09-4.76,4.09-18.87,4.1-6.16,0-9.82-4.86-12.72-6.6-.31-.2-.61-.36-.91-.46-5.49-2-3.93,3.69-8.77,8.59-.69.72-1.55,1.43-2.58,2.08-.34.22-.75.45-1.22.66-.14.07-.3.15-.46.23l-.05.02c-.27.13-.57.25-.89.38-.79.33-1.7.67-2.7,1.01-.99.33-2.07.7-3.23,1.05t-.04,0c-15.19,4.64-42.58,10.1-42.6,14.66Z"/>
                    <rect class="cls-9" x="333.19" y="606.77" width="95.49" height="3.05"/>
                    <path class="cls-9" d="M429.71,592.05c-4.11.55-7.95,2.51-11.13,5.86-2.53,2.66-4.34,5.86-5.46,8.87h1.99c1.07-2.62,2.7-5.34,4.82-7.58,2.04-2.14,5.26-4.64,9.7-5.29.03-.62.05-1.24.07-1.86Z"/>
                    <path class="cls-9" d="M388.79,592.8c1.62-1.42-.66-3.4-3.17-4.95-.39.31-.8.61-1.26.9-.34.22-.75.45-1.22.66-.14.07-.3.15-.46.23l-.05.02c-.27.13-.57.25-.89.38-.79.33-1.7.67-2.7,1.01-.99.33-2.07.7-3.23,1.05t-.04,0c-5.54,1.69-12.71,3.49-19.58,5.32.02,0,29.51-1.94,32.58-4.63Z"/>
                  </g>
                </g>
                <g>
                  <polygon class="cls-10" points="500.61 548.87 510.38 589.07 541.58 589.07 532.34 547.73 500.61 548.87"/>
                  <g>
                    <path class="cls-19" d="M545.58,606.77h-45.56c0-7.78,5.57-15.45,5.93-15.93t.02-.02c.3-3.55.71-6.77,1.22-8.49.22-.8.56-1.27.97-1.29,2.52-.07,2.06,2.86,7.11,4.43.88-.79,3.35-2.6,7.87-2.6,4.99,0,7.5,2.23,8.1,2.84,6.62-1.48,7.2-4.75,9.84-4.68.43.02.77.49.99,1.29,3.52,12.32,3.52,24.44,3.52,24.44Z"/>
                    <rect class="cls-9" x="500.03" y="606.77" width="45.56" height="3.05"/>
                    <path class="cls-9" d="M514.94,592.46c7.59-1.94,15.19,1.01,15.19,1.01,0,0-3.49,5.05-12.45,5.05-2.74,0-2.74-6.06-2.74-6.06Z"/>
                    <path class="cls-9" d="M544.47,593.66c-3.55,1.49-4.88,8.28-5.39,13.1h1.88c.52-4.74,1.71-9.72,3.78-11.13-.08-.64-.17-1.3-.27-1.97Z"/>
                  </g>
                </g>
                <g>
                  <path class="cls-9" d="M390.97,426.58c-1.04,26.19-2.17,71.8-2.17,129.36,14.35,4.88,34.72,4.66,52.45,2.61l7.66-117.69c0-10.12,3.29-24.4,3.88-73.09,8.3,42.38,12.4,69.9,14.48,84.66,1.99,14.14,12.34,54.76,23.28,103.71,18.07,2.96,45.25-3.75,49.88-8.61l-18.96-100.48s-11.26-80.48-7.07-94.08c3.87-12.56,5.62-49.96-8.88-68.5h-101.67s-11.97,119.47-12.87,142.11Z"/>
                  <g class="cls-24">
                    <g>
                      <path class="cls-2" d="M401.96,577.67c-6.73-73.4,15.15-312.73,15.15-312.73l27.27,8.17c-24.24,118.06-16.18,307.92-16.18,307.92l83.49-12.63c-41.06-126.07-51.16-295.3-51.16-295.3l24.22,4.12c1.37,104.51,49.84,297.73,49.84,297.73"/>
                      <path class="cls-2" d="M452.79,367.77c-3.03-26.76-3.03-42.92-3.03-42.92"/>
                    </g>
                  </g>
                </g>
              </g>
              <path class="cls-9" d="M491.48,199.73c-34.02-33.68-49.89-79.25-49.89-79.25-13.35-7.82-21.79-38.4-9.5-55.15,5.23-7.13,12.22-10.78,19.97-12.34,17.64-3.56,32.69.14,42.34,11.3,5.45,6.3,6.68,11.54,9.52,23.38v.02c14.96,43.85,47.5,60.8,47.5,60.8-10.72-3.24-19.37-8.81-26.29-15.17,4.23,5.48,9.37,11.13,15.58,16.89,26.87,24.91-15.19,83.24-49.22,49.54Z"/>
              <g>
                <g>
                  <path class="cls-10" d="M404.71,182.28s-29.89,14.19-38.84,13.1c-12.86-1.57-64.56-31.19-64.56-31.19l10.06-17.95s47.19,20.29,51.92,19.68c2.33-.29,19.21-7.07,36.94-13.1l4.49,29.46Z"/>
                  <g>
                    <path class="cls-10" d="M311.37,146.23s-23.44-15.72-28.41-16.86c-4.97-1.14-22.42-5.36-24.13-5.25-2.29.15-2.99,3.32-1.54,4.48,1.29,1.03,17.91,6.45,17.91,6.45,0,0-20.74-4.64-23.93-4.38-2.26.18-3.46,3.76-1.3,4.99,2.12,1.22,22.4,6.43,22.4,6.43,0,0-20.17-3.4-21.09-3.37-1.98.07-2.58,3.09-.96,3.99,1.36.75,19.84,5.78,19.84,5.78,0,0-6.63.51-7.56.66-1.15.18-7.33,1.46-7.75,1.73-1.16.73-.44,2.72,1.31,2.87,1.11.1,6.3-.49,7.06-.65.4-.08,10.05.64,11.2,1.41,11.12,7.48,26.89,9.67,26.89,9.67l10.06-17.95Z"/>
                    <path class="cls-3" d="M291.09,153.45c-5.05-2.88-11.31-11.21-11.31-11.21l-9.4-1.04c-1.8-1.39-1.94-4.04,1.01-4.99,2.95-.95,9.57-.81,9.57-.81l9.03,2.58"/>
                  </g>
                </g>
                <path class="cls-9" d="M556.05,192.05c9.74,9.94-10.88,43.49-22.51,33.62-11.62-9.87,11.79-44.56,22.51-33.62Z"/>
                <g>
                  <g>
                    <path class="cls-10" d="M602.35,277.23c.81,1.24,6.39,5.32,4.81,13.01-.79,3.85,1.7,11.65,1.81,12.89.35,3.97,2.73,9.08,3.12,10.44.17.6,3.49.77,4.4-3.08.36-1.52.03-3.49-1.2-6.83-.65-1.75-.8-6.77.45-7.43,1.58-.84,2.99-.69,4.58,1.15,4.05,4.69,11.03,19.35,12.73,20.31,1.39.8,5.04-.02,4.2-3.63-.84-3.61,2.61,2.53,4.25,4.12,3.15,3.07,5.81.2,5.15-1.79-1.57-4.72-.88-4.89.91-3.53,2.28,1.72,5.04-.91,4-3.14-.4-.84-6.81-12.92-4.27-11.05,2.46,1.8,5.48-.97,3.29-3.86-1.9-2.51-7.41-10.91-9.6-13.51-2.88-3.41-5.37-7.84-22.78-21.1l-15.85,17.04Z"/>
                    <g>
                      <path class="cls-3" d="M645.73,312.23c-3.63-8.5-12.01-21.21-12.01-21.21"/>
                      <path class="cls-3" d="M646.62,298.37c-3.67-6.26-7.91-11.28-7.91-11.28"/>
                      <path class="cls-3" d="M637.14,312.89c-2.19-8.52-11.11-19.94-11.11-19.94"/>
                    </g>
                  </g>
                  <path class="cls-10" d="M618.2,260.19l-15.85,17.04-53.78-45.46-28.56-21.86,20.13-30.25,8.46,7.41c34.27,33,69.6,73.13,69.6,73.13Z"/>
                </g>
                <g>
                  <path class="cls-15" d="M401.63,293.21c5.89-40.62,6.74-81.67,6.74-81.67-9.11-9.81-3.34-23.61-3.34-23.61l-24.46,7.5c-5.38-7.29-8.86-23.6-8.24-33.84,46.97-20.56,63.61-20.56,63.61-20.56,0,0,32.54,1.57,65.18,8.72,8.73,1.91,31.3,19.92,54.93,42.3-11.59-5.04-33.61,24.79-22.51,33.62l-28.86-24.5c-4.7,19.61-7.64,58.88,1.16,83.36-24.09,14.24-78.62,13.57-104.21,8.69Z"/>
                  <g>
                    <path class="cls-4" d="M450.31,215.82c18.86,8.48,32.68-2.49,32.68-2.49"/>
                    <path class="cls-4" d="M504.71,201.36c-5.51-4.88-11.28-11.36-11.28-11.36"/>
                    <path class="cls-4" d="M408.44,211.67c1.73,1.77,6.14,4.67,13.67,4.38"/>
                    <path class="cls-4" d="M405.02,187.93c3.57-12.12,12.09-25.67,12.09-25.67"/>
                    <path class="cls-4" d="M484.75,264.94c-19.88,24.57-73.69,14.14-73.69,14.14"/>
                  </g>
                  <path class="cls-16" d="M491.49,147.8c-18.03-3.4-35.04-5.18-45.37-6.05-9.85,18.15-1.86,37.9-1.86,37.9,0,0,39.07-13.12,47.23-31.86Z"/>
                  <path class="cls-10" d="M483.32,149.4l-.27-3.1c-13.51-2.23-25.86-3.58-34.54-4.35l-.77,7.45c-1.92,11,0,21.44,0,21.44,0,0,34.29-11.99,35.58-21.44Z"/>
                </g>
              </g>
              <g>
                <g>
                  <path class="cls-10" d="M451.55,103.07c.5,5.29-3.81,46.33-3.81,46.33-1.31,19.73,34.56,8.59,35.57,0l-4.59-51.81-27.17,5.49Z"/>
                  <path class="cls-20" d="M448.79,139.11c16.68-6.01,15.02-17.31,15.02-17.31l-13.36-.48c-.53,6.08-1.15,12.57-1.67,17.79h0Z"/>
                </g>
                <path class="cls-10" d="M432.72,79.08c-5.27,8.37-1.71,12.91-1.71,21.25,0,8.94-3.42,21.62,3.74,28.23,7.42,6.85,24.6,7.18,36.37-7.65,11.88-14.98,9.17-39.97-3.73-46.42-11.04-5.52-27.38-6.99-34.67,4.59Z"/>
                <g>
                  <path class="cls-20" d="M440,113.21c-4.09,0-4.91-.82-5.55-1.9-.4-.67-.03-1.97.83-4.87.59-1.99,1.26-4.25,1.62-6.31.05-.26.28-.43.55-.39.26.05.44.29.39.55-.37,2.12-1.08,4.5-1.65,6.42-.48,1.62-1.09,3.64-.96,4.04.44.74.89,1.5,4.76,1.5.27,0,.48.21.48.48s-.21.48-.48.48Z"/>
                  <path class="cls-1" d="M468.55,101.66c1.9,3.58.88,7.85-2.28,9.53-3.16,1.68-7.27.14-9.18-3.44-1.9-3.58-.88-7.85,2.28-9.53,3.16-1.68,7.27-.14,9.18,3.44Z"/>
                  <g>
                    <path class="cls-20" d="M452.57,111.78c-3.47,2.48-8.57,4.68-11.84,3.93,1.83,2.52,4.02,6.18,9.4,4.28,3.32-1.17,3.72-4.62,2.43-8.21Z"/>
                    <path class="cls-16" d="M453.16,114.21c-.1-.79-.3-1.6-.59-2.43-.43.31-.89.62-1.37.91-.96.59-1.99,1.15-3.04,1.62-2.63,1.18-5.39,1.87-7.43,1.4.52.71,1.06,1.51,1.7,2.25,5.44-.33,8.77-2.06,10.73-3.76Z"/>
                  </g>
                  <g>
                    <path class="cls-9" d="M448,96.22c0,1.74-.83,3.14-1.85,3.14s-1.85-1.41-1.85-3.14.83-3.14,1.85-3.14,1.85,1.41,1.85,3.14Z"/>
                    <path class="cls-9" d="M442.87,90.48c.49,1.13,2.36-.63,4.88-.81,2.1-.15,4.49.85,5.36,1.62.17-1.51-1.94-3.44-4.8-3.63-4.23-.28-5.45,2.82-5.45,2.82Z"/>
                    <path class="cls-9" d="M446.15,93.08c-1.66-.26-3.28.04-3.28.04l3.28.99v-1.02Z"/>
                  </g>
                  <g>
                    <path class="cls-9" d="M434.22,97.59c0,1.44-.69,2.61-1.53,2.61s-1.53-1.17-1.53-2.61.68-2.61,1.53-2.61,1.53,1.17,1.53,2.61Z"/>
                    <path class="cls-9" d="M434.98,92.36c-.25,1.43-2.21-.21-3.7.37-1.35.53-2.42,1.54-2.91,2.37-.43-.97.32-2.92,2.17-3.66,2.74-1.1,4.44.92,4.44.92Z"/>
                    <path class="cls-9" d="M432.69,94.98c-1.66-.26-2.62.02-2.62.02l2.62.82v-.83Z"/>
                  </g>
                </g>
                <path class="cls-9" d="M469.92,66.84c-11.58-5.13-27.51-7.45-35.7-.78-9.37,7.62-6.82,20.98-6.82,20.98,5.29,3.14,16.48,4.26,30.7-8.05,0,8.12,8.9,19.49,13.24,22.06,3.95,2.34,4.17-4.58,7.44-7.34.99-.45,2.72-21.73-8.86-26.86Z"/>
                <g>
                  <rect class="cls-16" x="428.72" y="85.92" width="40.99" height="20.49" rx="4.38" ry="4.38"/>
                  <rect class="cls-23" x="420.52" y="85.92" width="40.99" height="20.49" rx="4.38" ry="4.38"/>
                  <rect class="cls-16" x="432.82" y="77.72" width="16.39" height="36.89" rx="3.29" ry="3.29" transform="translate(537.18 -344.85) rotate(90)"/>
                  <path class="cls-23" d="M465.6,91.14h25.06c.6,0,1.1.49,1.1,1.1v4.54c0,.6-.49,1.1-1.1,1.1h-25.06v-6.73h0Z"/>
                  <g class="cls-17">
                    <g class="cls-21">
                      <rect class="cls-14" x="432.31" y="73.43" width="3.37" height="39.84" transform="translate(104.81 -204.48) rotate(30)"/>
                      <rect class="cls-14" x="441.94" y="80.37" width="6.35" height="39.84" transform="translate(109.78 -209.12) rotate(30)"/>
                    </g>
                  </g>
                  <path class="cls-23" d="M444.09,97.19h-6.15c-.57,0-1.02-.46-1.02-1.02h0c0-.57.46-1.02,1.02-1.02h6.15c.57,0,1.02.46,1.02,1.02h0c0,.57-.46,1.02-1.02,1.02Z"/>
                  <path class="cls-23" d="M474.52,91.3c0-15.32-13.14-41.03-39.36-29.57,0,0,5.85-8.35,17.46-9.01,24.63,0,32.66,18.56,32.66,38.58h-10.77Z"/>
                </g>
                <g>
                  <path class="cls-10" d="M478.78,93.7c3.3-4.28,9.93-2.99,11.49,2.37,1.07,3.69,0,14.12-10.49,13.41-9.75-.65-3.42-12.65-1-15.78Z"/>
                  <path class="cls-20" d="M480.18,103.65c-.26,0-.49-.18-.56-.44-.79-3.25.11-6.63,2.15-8.05,1.35-.94,2.97-.86,4.55.22.26.18.33.53.15.79-.18.26-.54.33-.8.15-1.19-.81-2.31-.88-3.26-.23-1.64,1.14-2.37,4.08-1.69,6.84.07.31-.11.62-.42.69-.05.01-.09.02-.14.02Z"/>
                </g>
              </g>
            </g>
            <path class="cls-5" d="M685.18,400.74c0,19.81-98.63,35.86-220.31,35.86s-220.31-16.06-220.31-35.86"/>
            <path class="cls-5" d="M721.04,284.13c0,25.47-114.69,46.11-256.17,46.11s-256.17-20.64-256.17-46.11"/>
            <path class="cls-5" d="M655.46,510.6c0,14.15-85.33,25.62-190.59,25.62s-190.59-11.47-190.59-25.62"/>
          </g>
          <g>
            <g>
              <path class="cls-12" d="M237.35,30.3v120.41c0,3.78-2.6,7.07-6.28,7.96-36.57,8.88-58.24,19.94-58.24,31.91V53.28c0-11.54,20.11-22.22,54.27-30.93,5.18-1.32,10.24,2.59,10.24,7.94Z"/>
              <g>
                <polygon class="cls-14" points="296.98 111.97 291.78 111 291.95 107.93 297.03 108.89 296.98 111.97"/>
                <polygon class="cls-14" points="289.32 110.54 276.31 108.13 276.81 105.06 289.54 107.47 289.32 110.54"/>
                <polygon class="cls-14" points="296.87 118.53 280.69 115.65 281.12 112.3 296.92 115.18 296.87 118.53"/>
                <polygon class="cls-14" points="296.74 125.72 287.06 124.08 287.35 120.4 296.8 122.04 296.74 125.72"/>
                <polygon class="cls-14" points="284.02 123.57 274.05 121.88 274.65 118.19 284.39 119.88 284.02 123.57"/>
              </g>
              <path class="cls-14" d="M256.92,178.15c-.5-.11-1.01-.21-1.51-.32v-.02l1.51.34Z"/>
              <g>
                <path class="cls-19" d="M255.4,177.81v7.65c-17.78-3.65-35.23-8.68-52.21-15.09v-7.99c16.94,6.55,34.41,11.69,52.21,15.43Z"/>
                <path class="cls-19" d="M203.19,194.27v7.93c18.94,6.47,38.37,11.44,58.12,14.83v-7.61c-19.78-3.47-39.22-8.55-58.12-15.15Z"/>
                <path class="cls-19" d="M231.86,187.51c-9.69-2.65-19.24-5.69-28.67-9.14v7.95c9.43,3.38,19,6.38,28.67,8.96v-7.76Z"/>
              </g>
              <g>
                <path class="cls-19" d="M227.53,120l-8.01-.16c.14-9.27-6.22-16.96-14.17-17.12l.14-9.35c12.39.25,22.26,12.18,22.05,26.63Z"/>
                <path class="cls-7" d="M227.53,120c-.11,7.24-2.72,13.73-6.85,18.38l-5.57-6.73c2.66-2.99,4.34-7.15,4.41-11.81l8.01.16Z"/>
              </g>
              <path class="cls-11" d="M311.66,105.93v120.79c0,4.92-4.32,8.74-9.2,8.14-78.17-9.54-129.62-25.81-129.62-44.27V53.28c0,18.62,52.33,35.01,131.61,44.51,4.11.49,7.21,3.99,7.21,8.14Z"/>
              <path class="cls-16" d="M220.69,138.38c-4.14,4.65-9.8,7.47-15.98,7.34-12.39-.25-22.26-12.16-22.05-26.63.22-14.45,10.44-25.97,22.83-25.72l-.14,9.35c-7.95-.16-14.54,7.26-14.68,16.53-.14,9.29,6.22,16.96,14.17,17.12,3.97.08,7.61-1.73,10.27-4.73l5.57,6.73Z"/>
              <g>
                <path class="cls-16" d="M280.54,197.18v7.57c-16.46-2.04-32.71-5.22-48.68-9.48v-7.76c.65.17,1.29.37,1.94.54,15.32,4.08,30.93,7.14,46.73,9.13Z"/>
                <path class="cls-16" d="M280.54,182.11v7.56c-8.43-1.08-16.81-2.49-25.13-4.21v-7.63c.5.11,1.01.21,1.51.32,7.82,1.61,15.69,2.94,23.62,3.96Z"/>
                <path class="cls-16" d="M280.54,212.29v7.54c-6.43-.77-12.85-1.7-19.22-2.81v-7.61c.43.07.88.17,1.31.24,5.95,1.01,11.91,1.89,17.92,2.64Z"/>
              </g>
            </g>
            <g>
              <path class="cls-12" d="M692.39,30.3v120.41c0,3.78,2.6,7.07,6.28,7.96,36.57,8.88,58.24,19.94,58.24,31.91V53.28c0-11.54-20.11-22.22-54.27-30.93-5.18-1.32-10.24,2.59-10.24,7.94Z"/>
              <path class="cls-11" d="M618.08,105.93v120.79c0,4.92,4.32,8.74,9.2,8.14,78.17-9.54,129.62-25.81,129.62-44.27V53.28c0,18.62-52.33,35.01-131.61,44.51-4.11.49-7.21,3.99-7.21,8.14Z"/>
              <path class="cls-16" d="M628.33,107.75c39.5-4.82,72.57-11.4,95.72-19.07,7.21-2.39,15.36-5.42,22.61-9.35v111.25c-.66,4.11-22.75,21.91-118.33,33.82v-116.66Z"/>
              <path class="cls-13" d="M692.39,97.17v53.54c0,3.78,2.6,7.07,6.28,7.96,21.73,5.28,38.2,11.33,47.99,17.88v-97.22c-7.25,3.93-15.39,6.96-22.61,9.35-9.09,3.01-19.73,5.85-31.66,8.48Z"/>
              <g>
                <path class="cls-5" d="M638.58,116.78c36.2-4.78,66.72-11.09,88.69-18.37,3.28-1.09,6.31-2.16,9.14-3.24v91.66c-5.41,3.79-27.73,16.21-97.83,25.9v-95.95Z"/>
                <path class="cls-5" d="M638.58,200.72l37.7-28.81c2.09-1.6,4.81-2.09,7.33-1.34l15.46,4.64c2.79.84,5.82.13,7.95-1.86l6.73-6.28c2.34-2.19,5.75-2.81,8.72-1.59l13.94,5.74"/>
                <path class="cls-5" d="M694.48,144.57c0,4.53-2.75,8.2-6.15,8.2s-6.15-3.67-6.15-8.2,2.75-8.2,6.15-8.2,6.15,3.67,6.15,8.2Z"/>
              </g>
            </g>
          </g>
        </g>
      </g>
    </g>
  </g>
</svg>